/* XPM */
static char * visstart_xpm[] = {
"14 14 3 1",
" 	c None",
".	c #FFFFFF",
"+	c #000000",
"..............",
"..............",
"..++......++..",
"..++......++..",
"...++....++...",
"...++....++...",
"...+++..+++...",
"....++..++....",
"....++..++....",
".....++++.....",
".....++++.....",
"......++......",
"......++......",
".............."};
